<?xml version="1.0" encoding="UTF-8"?>
<svg xmlns="http://www.w3.org/2000/svg" xmlns:xlink="http://www.w3.org/1999/xlink" width="48px" height="48px" viewBox="0 0 48 48" version="1.1">
<defs>
<linearGradient id="linear0" gradientUnits="userSpaceOnUse" x1="47.9005" y1="29.3081" x2="47.9005" y2="108.3868" gradientTransform="matrix(0.36735,-0.0754125,0.0754125,0.36735,-5.064788,4.066763)">
<stop offset="0.00794654" style="stop-color:rgb(100%,59.607843%,0%);stop-opacity:1;"/>
<stop offset="1" style="stop-color:rgb(93.72549%,42.352941%,0%);stop-opacity:1;"/>
</linearGradient>
<filter id="alpha" filterUnits="objectBoundingBox" x="0%" y="0%" width="100%" height="100%">
  <feColorMatrix type="matrix" in="SourceGraphic" values="0 0 0 0 1 0 0 0 0 1 0 0 0 0 1 0 0 0 1 0"/>
</filter>
<mask id="mask0">
  <g filter="url(#alpha)">
<rect x="0" y="0" width="48" height="48" style="fill:rgb(0%,0%,0%);fill-opacity:0.2;stroke:none;"/>
  </g>
</mask>
<clipPath id="clip1">
  <rect x="0" y="0" width="48" height="48"/>
</clipPath>
<g id="surface5" clip-path="url(#clip1)">
<path style=" stroke:none;fill-rule:nonzero;fill:rgb(25.882353%,25.882353%,25.882353%);fill-opacity:1;" d="M 27.398438 9.699219 L 32.894531 36.476562 C 32.683594 36.5625 32.503906 36.707031 32.378906 36.898438 C 32.210938 37.148438 32.15625 37.453125 32.214844 37.742188 L 32.703125 40.117188 L 9.425781 44.894531 C 9.375 44.90625 9.320312 44.910156 9.261719 44.910156 C 8.929688 44.910156 8.644531 44.695312 8.582031 44.402344 L 7.871094 40.925781 L 3.527344 19.78125 L 2.636719 15.441406 C 2.566406 15.089844 2.824219 14.742188 3.21875 14.660156 L 27.398438 9.699219 M 28.273438 8.371094 L 2.992188 13.554688 C 1.992188 13.761719 1.339844 14.707031 1.539062 15.667969 L 2.429688 20.007812 L 6.773438 41.15625 L 7.484375 44.632812 C 7.65625 45.464844 8.410156 46.039062 9.265625 46.039062 C 9.394531 46.039062 9.523438 46.027344 9.65625 45.996094 L 34.035156 40.996094 L 33.324219 37.519531 L 34.226562 37.335938 Z M 28.273438 8.371094 "/>
</g>
<linearGradient id="linear1" gradientUnits="userSpaceOnUse" x1="13.417" y1="111.5104" x2="79.0293" y2="111.5104" gradientTransform="matrix(0.36735,-0.0754125,0.0754125,0.36735,-5.064788,4.066763)">
<stop offset="0.0102" style="stop-color:rgb(74.117647%,74.117647%,74.117647%);stop-opacity:1;"/>
<stop offset="0.9869" style="stop-color:rgb(96.078431%,96.078431%,96.078431%);stop-opacity:1;"/>
</linearGradient>
<clipPath id="clip2">
  <path d="M 0 12 L 11 12 L 11 42 L 0 42 Z M 0 12 "/>
</clipPath>
<clipPath id="clip3">
  <path d="M 35.070312 31.253906 L 11.714844 41.261719 C 10.570312 41.753906 9.246094 41.222656 8.761719 40.082031 L -1.117188 17.035156 C -1.605469 15.894531 -1.074219 14.570312 0.0664062 14.082031 L 23.421875 4.074219 Z M 35.070312 31.253906 "/>
</clipPath>
<linearGradient id="linear2" gradientUnits="userSpaceOnUse" x1="66.3842" y1="9.0964" x2="66.3842" y2="88.7335" gradientTransform="matrix(0.387788,0.0377625,-0.0363375,0.373238,1.55265,-2.361)">
<stop offset="0.00794654" style="stop-color:rgb(26.666667%,50.196078%,96.862745%);stop-opacity:1;"/>
<stop offset="1" style="stop-color:rgb(19.215686%,36.470588%,70.196078%);stop-opacity:1;"/>
</linearGradient>
<mask id="mask1">
  <g filter="url(#alpha)">
<rect x="0" y="0" width="48" height="48" style="fill:rgb(0%,0%,0%);fill-opacity:0.2;stroke:none;"/>
  </g>
</mask>
<clipPath id="clip4">
  <rect x="0" y="0" width="48" height="48"/>
</clipPath>
<g id="surface8" clip-path="url(#clip4)">
<path style=" stroke:none;fill-rule:nonzero;fill:rgb(25.882353%,25.882353%,25.882353%);fill-opacity:1;" d="M 14.941406 3.546875 C 14.964844 3.546875 14.992188 3.546875 15.019531 3.550781 L 39.632812 5.949219 L 36.96875 33.324219 C 36.742188 33.34375 36.527344 33.429688 36.347656 33.578125 C 36.113281 33.773438 35.964844 34.050781 35.9375 34.355469 L 35.699219 36.769531 L 12.007812 34.460938 C 11.8125 34.445312 11.636719 34.355469 11.511719 34.210938 C 11.449219 34.136719 11.34375 33.976562 11.363281 33.757812 L 11.707031 30.203125 L 13.816406 8.5625 L 14.25 4.121094 C 14.28125 3.796875 14.578125 3.546875 14.941406 3.546875 M 14.941406 2.398438 C 14 2.398438 13.195312 3.085938 13.109375 4.007812 L 12.675781 8.449219 L 10.566406 30.089844 L 10.222656 33.644531 C 10.125 34.628906 10.875 35.503906 11.894531 35.601562 L 36.730469 38.019531 L 37.078125 34.464844 L 38 34.554688 L 40.886719 4.921875 L 15.128906 2.410156 C 15.0625 2.402344 15 2.398438 14.941406 2.398438 Z M 14.941406 2.398438 "/>
</g>
<linearGradient id="linear3" gradientUnits="userSpaceOnUse" x1="33.4145" y1="92.1348" x2="96.7377" y2="92.1348" gradientTransform="matrix(0.387788,0.0377625,-0.0363375,0.373238,1.55265,-2.361)">
<stop offset="0.0102" style="stop-color:rgb(74.117647%,74.117647%,74.117647%);stop-opacity:1;"/>
<stop offset="0.9869" style="stop-color:rgb(96.078431%,96.078431%,96.078431%);stop-opacity:1;"/>
</linearGradient>
<clipPath id="clip5">
  <path d="M 9 2 L 16 2 L 16 37 L 9 37 Z M 9 2 "/>
</clipPath>
<clipPath id="clip6">
  <path d="M 36.355469 37.015625 L 11.347656 32.097656 C 10.128906 31.859375 9.335938 30.671875 9.574219 29.457031 L 14.449219 4.652344 C 14.6875 3.433594 15.875 2.640625 17.089844 2.878906 L 42.097656 7.796875 Z M 36.355469 37.015625 "/>
</clipPath>
<linearGradient id="linear4" gradientUnits="userSpaceOnUse" x1="85.6299" y1="32.1425" x2="85.6299" y2="110.0589" gradientTransform="matrix(0.373537,-0.033075,0.033075,0.373537,-2.120812,2.964788)">
<stop offset="0.00794654" style="stop-color:rgb(40%,73.333333%,41.568627%);stop-opacity:1;"/>
<stop offset="1" style="stop-color:rgb(18.039216%,49.019608%,19.607843%);stop-opacity:1;"/>
</linearGradient>
<mask id="mask2">
  <g filter="url(#alpha)">
<rect x="0" y="0" width="48" height="48" style="fill:rgb(0%,0%,0%);fill-opacity:0.2;stroke:none;"/>
  </g>
</mask>
<clipPath id="clip7">
  <rect x="0" y="0" width="48" height="48"/>
</clipPath>
<g id="surface11" clip-path="url(#clip7)">
<path style=" stroke:none;fill-rule:nonzero;fill:rgb(25.882353%,25.882353%,25.882353%);fill-opacity:1;" d="M 42.90625 12.136719 L 45.28125 38.945312 C 44.792969 39.101562 44.464844 39.582031 44.507812 40.113281 L 44.71875 42.476562 L 22.433594 44.449219 C 22.414062 44.449219 22.394531 44.453125 22.375 44.453125 C 22.058594 44.453125 21.789062 44.203125 21.757812 43.882812 L 21.449219 40.398438 L 19.574219 19.207031 L 19.1875 14.859375 C 19.160156 14.519531 19.414062 14.214844 19.753906 14.1875 L 42.90625 12.136719 M 43.929688 10.917969 L 19.65625 13.066406 C 18.699219 13.152344 17.984375 14 18.070312 14.957031 L 18.457031 19.304688 L 20.332031 40.496094 L 20.640625 43.980469 C 20.71875 44.886719 21.484375 45.574219 22.378906 45.574219 C 22.433594 45.574219 22.484375 45.570312 22.539062 45.566406 L 45.945312 43.492188 L 45.636719 40.007812 L 46.503906 39.933594 Z M 43.929688 10.917969 "/>
</g>
<linearGradient id="linear5" gradientUnits="userSpaceOnUse" x1="53.0684" y1="113.1366" x2="115.0234" y2="113.1366" gradientTransform="matrix(0.373537,-0.033075,0.033075,0.373537,-2.120812,2.964788)">
<stop offset="0.0102" style="stop-color:rgb(74.117647%,74.117647%,74.117647%);stop-opacity:1;"/>
<stop offset="0.9869" style="stop-color:rgb(96.078431%,96.078431%,96.078431%);stop-opacity:1;"/>
</linearGradient>
<clipPath id="clip8">
  <path d="M 16 11 L 23 11 L 23 42 L 16 42 Z M 16 11 "/>
</clipPath>
<clipPath id="clip9">
  <path d="M 47.320312 37.515625 L 23.824219 41.707031 C 22.597656 41.925781 21.429688 41.109375 21.210938 39.886719 L 16.882812 15.640625 C 16.667969 14.417969 17.480469 13.25 18.703125 13.03125 L 42.199219 8.835938 Z M 47.320312 37.515625 "/>
</clipPath>
</defs>
<g id="surface1">
<path style=" stroke:none;fill-rule:nonzero;fill:rgb(25.882353%,25.882353%,25.882353%);fill-opacity:1;" d="M 34.027344 40.996094 L 10.039062 45.917969 C 8.820312 46.171875 7.632812 45.382812 7.382812 44.167969 L 2.519531 20.476562 C 2.269531 19.257812 3.054688 18.066406 4.269531 17.820312 L 28.261719 12.894531 Z M 34.027344 40.996094 "/>
<path style=" stroke:none;fill-rule:nonzero;fill:url(#linear0);" d="M 34.21875 37.335938 L 9.328125 42.441406 C 8.109375 42.695312 6.917969 41.90625 6.671875 40.691406 L 1.632812 16.132812 C 1.378906 14.914062 2.167969 13.726562 3.382812 13.476562 L 28.273438 8.371094 Z M 34.21875 37.335938 "/>
<use xlink:href="#surface5" mask="url(#mask0)"/>
<path style=" stroke:none;fill-rule:nonzero;fill:url(#linear1);" d="M 32.640625 40.371094 L 9.800781 45.058594 C 9.105469 45.203125 8.417969 44.75 8.277344 44.054688 L 8.261719 43.980469 C 8.117188 43.28125 8.574219 42.597656 9.265625 42.453125 L 32.105469 37.765625 Z M 32.640625 40.371094 "/>
<g clip-path="url(#clip2)" clip-rule="nonzero">
<g clip-path="url(#clip3)" clip-rule="nonzero">
<path style=" stroke:none;fill-rule:nonzero;fill:rgb(25.882353%,25.882353%,25.882353%);fill-opacity:1;" d="M -0.675781 13.101562 L 2.949219 12.359375 L 10.085938 47.117188 L 6.460938 47.859375 Z M -0.675781 13.101562 "/>
</g>
</g>
<path style=" stroke:none;fill-rule:nonzero;fill:rgb(25.882353%,25.882353%,25.882353%);fill-opacity:1;" d="M 36.730469 38.023438 L 12.285156 35.644531 C 11.046875 35.523438 10.144531 34.421875 10.265625 33.1875 L 12.625 8.914062 C 12.746094 7.675781 13.847656 6.773438 15.082031 6.890625 L 39.527344 9.273438 Z M 36.730469 38.023438 "/>
<path style=" stroke:none;fill-rule:nonzero;fill:url(#linear2);" d="M 37.890625 34.449219 L 12.523438 31.976562 C 11.289062 31.855469 10.382812 30.753906 10.503906 29.519531 L 12.953125 4.359375 C 13.074219 3.125 14.175781 2.21875 15.410156 2.339844 L 40.773438 4.8125 Z M 37.890625 34.449219 "/>
<use xlink:href="#surface8" mask="url(#mask1)"/>
<path style=" stroke:none;fill-rule:nonzero;fill:url(#linear3);" d="M 35.585938 37.011719 L 12.328125 34.746094 C 11.613281 34.675781 11.089844 34.039062 11.15625 33.328125 L 11.164062 33.25 C 11.234375 32.539062 11.871094 32.015625 12.585938 32.082031 L 35.847656 34.347656 Z M 35.585938 37.011719 "/>
<g clip-path="url(#clip5)" clip-rule="nonzero">
<g clip-path="url(#clip6)" clip-rule="nonzero">
<path style=" stroke:none;fill-rule:nonzero;fill:rgb(25.882353%,25.882353%,25.882353%);fill-opacity:1;" d="M 11.75 0.882812 L 15.445312 1.242188 L 11.980469 36.808594 L 8.285156 36.449219 Z M 11.75 0.882812 "/>
</g>
</g>
<path style=" stroke:none;fill-rule:nonzero;fill:rgb(25.882353%,25.882353%,25.882353%);fill-opacity:1;" d="M 45.941406 43.496094 L 23.03125 45.523438 C 21.796875 45.632812 20.703125 44.71875 20.589844 43.480469 L 18.496094 19.808594 C 18.386719 18.570312 19.300781 17.480469 20.539062 17.367188 L 43.449219 15.335938 Z M 45.941406 43.496094 "/>
<path style=" stroke:none;fill-rule:nonzero;fill:url(#linear4);" d="M 46.5 39.933594 L 22.726562 42.039062 C 21.488281 42.144531 20.394531 41.230469 20.285156 39.992188 L 18.113281 15.460938 C 18.003906 14.222656 18.917969 13.132812 20.15625 13.019531 L 43.929688 10.917969 Z M 46.5 39.933594 "/>
<use xlink:href="#surface11" mask="url(#mask2)"/>
<path style=" stroke:none;fill-rule:nonzero;fill:url(#linear5);" d="M 44.703125 42.726562 L 22.757812 44.671875 C 22.097656 44.730469 21.515625 44.238281 21.453125 43.578125 L 21.433594 43.359375 C 21.375 42.703125 21.867188 42.117188 22.527344 42.054688 L 44.472656 40.113281 Z M 44.703125 42.726562 "/>
<g clip-path="url(#clip8)" clip-rule="nonzero">
<g clip-path="url(#clip9)" clip-rule="nonzero">
<path style=" stroke:none;fill-rule:nonzero;fill:rgb(25.882353%,25.882353%,25.882353%);fill-opacity:1;" d="M 16.257812 12.195312 L 19.738281 11.886719 L 22.824219 46.714844 L 19.34375 47.019531 Z M 16.257812 12.195312 "/>
</g>
</g>
</g>
</svg>
