<?xml version="1.0" encoding="UTF-8"?>
<svg xmlns="http://www.w3.org/2000/svg" xmlns:xlink="http://www.w3.org/1999/xlink" width="48px" height="48px" viewBox="0 0 48 48" version="1.1">
<defs>
<linearGradient id="linear0" gradientUnits="userSpaceOnUse" x1="64" y1="4.2679" x2="64" y2="111.72" gradientTransform="matrix(0.375,0,0,0.375,0,0)">
<stop offset="0.00794654" style="stop-color:rgb(26.666667%,50.196078%,96.862745%);stop-opacity:1;"/>
<stop offset="1" style="stop-color:rgb(19.215686%,36.470588%,70.196078%);stop-opacity:1;"/>
</linearGradient>
<filter id="alpha" filterUnits="objectBoundingBox" x="0%" y="0%" width="100%" height="100%">
  <feColorMatrix type="matrix" in="SourceGraphic" values="0 0 0 0 1 0 0 0 0 1 0 0 0 0 1 0 0 0 1 0"/>
</filter>
<mask id="mask0">
  <g filter="url(#alpha)">
<rect x="0" y="0" width="48" height="48" style="fill:rgb(0%,0%,0%);fill-opacity:0.2;stroke:none;"/>
  </g>
</mask>
<clipPath id="clip1">
  <rect x="0" y="0" width="48" height="48"/>
</clipPath>
<g id="surface5" clip-path="url(#clip1)">
<path style=" stroke:none;fill-rule:nonzero;fill:rgb(25.882353%,25.882353%,25.882353%);fill-opacity:1;" d="M 40.886719 2.625 L 40.886719 40.550781 L 40.8125 40.550781 C 40.1875 40.550781 39.6875 41.054688 39.6875 41.675781 L 39.6875 45.375 L 8.398438 45.375 C 7.691406 45.375 7.113281 44.796875 7.113281 44.089844 L 7.113281 3.910156 C 7.113281 3.203125 7.691406 2.625 8.398438 2.625 L 40.886719 2.625 M 42.011719 1.5 L 8.398438 1.5 C 7.070312 1.5 5.988281 2.578125 5.988281 3.910156 L 5.988281 44.089844 C 5.988281 45.421875 7.070312 46.5 8.398438 46.5 L 40.808594 46.5 L 40.808594 41.675781 L 42.007812 41.675781 L 42.007812 1.5 Z M 42.011719 1.5 "/>
</g>
<linearGradient id="linear1" gradientUnits="userSpaceOnUse" x1="19.0956" y1="115.9643" x2="104.5358" y2="115.9643" gradientTransform="matrix(0.375,0,0,0.375,0,0)">
<stop offset="0.0102" style="stop-color:rgb(74.117647%,74.117647%,74.117647%);stop-opacity:1;"/>
<stop offset="0.9869" style="stop-color:rgb(96.078431%,96.078431%,96.078431%);stop-opacity:1;"/>
</linearGradient>
<clipPath id="clip2">
  <path d="M 5 1 L 9 1 L 9 42 L 5 42 Z M 5 1 "/>
</clipPath>
<clipPath id="clip3">
  <path d="M 42.011719 41.675781 L 8.238281 41.675781 C 6.996094 41.675781 5.988281 40.667969 5.988281 39.425781 L 5.988281 3.75 C 5.988281 2.507812 6.996094 1.5 8.238281 1.5 L 42.007812 1.5 L 42.007812 41.675781 Z M 42.011719 41.675781 "/>
</clipPath>
</defs>
<g id="surface1">
<path style=" stroke:none;fill-rule:nonzero;fill:rgb(25.882353%,25.882353%,25.882353%);fill-opacity:1;" d="M 40.808594 46.5 L 8.238281 46.5 C 6.996094 46.5 5.988281 45.492188 5.988281 44.25 L 5.988281 9.769531 C 5.988281 8.527344 6.996094 7.519531 8.238281 7.519531 L 40.808594 7.519531 Z M 40.808594 46.5 "/>
<path style=" stroke:none;fill-rule:nonzero;fill:url(#linear0);" d="M 42.011719 41.675781 L 8.238281 41.675781 C 6.996094 41.675781 5.988281 40.667969 5.988281 39.425781 L 5.988281 3.75 C 5.988281 2.507812 6.996094 1.5 8.238281 1.5 L 42.007812 1.5 L 42.007812 41.675781 Z M 42.011719 41.675781 "/>
<use xlink:href="#surface5" mask="url(#mask0)"/>
<path style=" stroke:none;fill-rule:nonzero;fill:rgb(5.098039%,27.843137%,63.137255%);fill-opacity:1;" d="M 33.398438 8.003906 L 16.078125 8.003906 C 15.691406 8.003906 15.433594 8.265625 15.433594 8.660156 L 15.433594 18.519531 C 15.433594 18.914062 15.691406 19.175781 16.078125 19.175781 L 33.394531 19.175781 C 33.78125 19.175781 34.035156 18.914062 34.035156 18.519531 L 34.035156 8.660156 C 34.039062 8.265625 33.78125 8.003906 33.398438 8.003906 Z M 32.753906 17.863281 L 16.71875 17.863281 L 16.71875 9.320312 L 32.753906 9.320312 Z M 32.753906 17.863281 "/>
<path style=" stroke:none;fill-rule:nonzero;fill:rgb(5.098039%,27.843137%,63.137255%);fill-opacity:1;" d="M 21.851562 13.265625 L 27.621094 13.265625 C 28.007812 13.265625 28.265625 13 28.265625 12.609375 C 28.265625 12.214844 28.007812 11.953125 27.621094 11.953125 L 21.851562 11.953125 C 21.464844 11.953125 21.210938 12.214844 21.210938 12.609375 C 21.210938 12.996094 21.464844 13.265625 21.851562 13.265625 Z M 21.851562 13.265625 "/>
<path style=" stroke:none;fill-rule:nonzero;fill:rgb(5.098039%,27.843137%,63.137255%);fill-opacity:1;" d="M 19.925781 15.890625 L 29.550781 15.890625 C 29.9375 15.890625 30.191406 15.628906 30.191406 15.234375 C 30.191406 14.84375 29.9375 14.578125 29.550781 14.578125 L 19.925781 14.578125 C 19.542969 14.578125 19.285156 14.84375 19.285156 15.234375 C 19.285156 15.628906 19.542969 15.890625 19.925781 15.890625 Z M 19.925781 15.890625 "/>
<path style=" stroke:none;fill-rule:nonzero;fill:url(#linear1);" d="M 39.203125 45.296875 L 8.851562 45.296875 C 7.921875 45.296875 7.164062 44.535156 7.164062 43.609375 L 7.164062 43.367188 C 7.164062 42.441406 7.921875 41.679688 8.851562 41.679688 L 39.203125 41.679688 Z M 39.203125 45.296875 "/>
<g clip-path="url(#clip2)" clip-rule="nonzero">
<g clip-path="url(#clip3)" clip-rule="nonzero">
<path style=" stroke:none;fill-rule:nonzero;fill:rgb(25.882353%,25.882353%,25.882353%);fill-opacity:1;" d="M 3.84375 -0.109375 L 8.667969 -0.109375 L 8.667969 48.105469 L 3.84375 48.105469 Z M 3.84375 -0.109375 "/>
</g>
</g>
</g>
</svg>
